<svg xmlns="http://www.w3.org/2000/svg" xmlns:xlink="http://www.w3.org/1999/xlink" width="300" zoomAndPan="magnify" viewBox="0 0 224.87999 44.999999" height="60" preserveAspectRatio="xMidYMid meet" version="1.0"><defs><g/></defs><g fill="rgb(21.958923%, 85.099792%, 66.268921%)" fill-opacity="1"><g transform="translate(17.802998, 32.994396)"><g><path d="M 17.34375 -10.890625 L 16.359375 -12.515625 L 16.359375 -22.625 L 17.34375 -22.625 Z M 19.3125 -7.671875 L 18.328125 -9.3125 L 18.328125 -22.625 L 19.3125 -22.625 Z M 21.28125 -4.40625 L 20.296875 -6.0625 L 20.296875 -22.625 L 21.28125 -22.625 Z M 7.171875 -11.734375 L 8.15625 -10.109375 L 8.15625 0 L 7.171875 0 Z M 5.203125 -14.96875 L 6.1875 -13.3125 L 6.1875 0 L 5.203125 0 Z M 3.234375 -18.234375 L 4.21875 -16.5625 L 4.21875 0 L 3.234375 0 Z M 3.578125 -22.625 L 4.734375 -22.625 L 18.640625 0 L 17.484375 0 Z M 5.90625 -22.625 L 7.0625 -22.625 L 20.96875 0 L 19.78125 0 Z M 8.21875 -22.625 L 9.359375 -22.625 L 22.265625 -1.59375 L 22.265625 -22.625 L 23.25 -22.625 L 23.25 0 C 23.25 0 22.859375 0 22.078125 0 Z M 2.25 -21.03125 L 2.25 0 L 1.265625 0 L 1.265625 -22.625 C 1.265625 -22.625 1.660156 -22.625 2.453125 -22.625 L 16.3125 0 L 15.1875 0 Z M 2.25 -21.03125 "/></g></g></g><g fill="rgb(21.958923%, 85.099792%, 66.268921%)" fill-opacity="1"><g transform="translate(42.36849, 32.994396)"><g><path d="M 9.234375 -15.140625 C 8.179688 -14.085938 7.65625 -12.8125 7.65625 -11.3125 C 7.65625 -9.820312 8.179688 -8.546875 9.234375 -7.484375 C 10.296875 -6.429688 11.570312 -5.90625 13.0625 -5.90625 C 14.550781 -5.90625 15.820312 -6.429688 16.875 -7.484375 C 17.9375 -8.546875 18.46875 -9.820312 18.46875 -11.3125 C 18.46875 -12.8125 17.9375 -14.085938 16.875 -15.140625 C 15.820312 -16.191406 14.550781 -16.71875 13.0625 -16.71875 C 11.570312 -16.71875 10.296875 -16.191406 9.234375 -15.140625 Z M 7.171875 -8.828125 C 6.835938 -9.617188 6.671875 -10.445312 6.671875 -11.3125 C 6.671875 -12.175781 6.835938 -13 7.171875 -13.78125 C 7.503906 -14.570312 7.957031 -15.253906 8.53125 -15.828125 C 9.113281 -16.410156 9.796875 -16.867188 10.578125 -17.203125 C 11.367188 -17.535156 12.195312 -17.703125 13.0625 -17.703125 C 13.925781 -17.703125 14.75 -17.535156 15.53125 -17.203125 C 16.320312 -16.867188 17.003906 -16.410156 17.578125 -15.828125 C 18.160156 -15.253906 18.617188 -14.570312 18.953125 -13.78125 C 19.285156 -13 19.453125 -12.175781 19.453125 -11.3125 C 19.453125 -10.445312 19.285156 -9.617188 18.953125 -8.828125 C 18.617188 -8.046875 18.160156 -7.367188 17.578125 -6.796875 C 17.003906 -6.222656 16.320312 -5.765625 15.53125 -5.421875 C 14.75 -5.085938 13.925781 -4.921875 13.0625 -4.921875 C 12.195312 -4.921875 11.367188 -5.085938 10.578125 -5.421875 C 9.796875 -5.765625 9.113281 -6.222656 8.53125 -6.796875 C 7.957031 -7.367188 7.503906 -8.046875 7.171875 -8.828125 Z M 6.671875 -15.015625 C 6.015625 -13.890625 5.6875 -12.65625 5.6875 -11.3125 C 5.6875 -9.976562 6.015625 -8.742188 6.671875 -7.609375 C 7.335938 -6.484375 8.234375 -5.585938 9.359375 -4.921875 C 10.484375 -4.265625 11.71875 -3.9375 13.0625 -3.9375 C 14.40625 -3.9375 15.640625 -4.265625 16.765625 -4.921875 C 17.890625 -5.585938 18.78125 -6.484375 19.4375 -7.609375 C 20.101562 -8.742188 20.4375 -9.976562 20.4375 -11.3125 C 20.4375 -12.65625 20.101562 -13.890625 19.4375 -15.015625 C 18.78125 -16.148438 17.890625 -17.046875 16.765625 -17.703125 C 15.640625 -18.359375 14.40625 -18.6875 13.0625 -18.6875 C 11.71875 -18.6875 10.484375 -18.359375 9.359375 -17.703125 C 8.234375 -17.046875 7.335938 -16.148438 6.671875 -15.015625 Z M 5.8125 -7.109375 C 5.070312 -8.398438 4.703125 -9.800781 4.703125 -11.3125 C 4.703125 -12.820312 5.070312 -14.21875 5.8125 -15.5 C 6.5625 -16.789062 7.578125 -17.804688 8.859375 -18.546875 C 10.148438 -19.296875 11.550781 -19.671875 13.0625 -19.671875 C 14.570312 -19.671875 15.96875 -19.296875 17.25 -18.546875 C 18.539062 -17.804688 19.554688 -16.789062 20.296875 -15.5 C 21.046875 -14.21875 21.421875 -12.820312 21.421875 -11.3125 C 21.421875 -9.800781 21.046875 -8.398438 20.296875 -7.109375 C 19.554688 -5.828125 18.539062 -4.8125 17.25 -4.0625 C 15.96875 -3.320312 14.570312 -2.953125 13.0625 -2.953125 C 11.550781 -2.953125 10.148438 -3.320312 8.859375 -4.0625 C 7.578125 -4.8125 6.5625 -5.828125 5.8125 -7.109375 Z M 4.453125 -14.953125 C 3.960938 -13.796875 3.71875 -12.582031 3.71875 -11.3125 C 3.71875 -10.050781 3.960938 -8.835938 4.453125 -7.671875 C 4.941406 -6.515625 5.601562 -5.519531 6.4375 -4.6875 C 7.269531 -3.851562 8.265625 -3.191406 9.421875 -2.703125 C 10.578125 -2.210938 11.789062 -1.96875 13.0625 -1.96875 C 14.332031 -1.96875 15.546875 -2.210938 16.703125 -2.703125 C 17.859375 -3.191406 18.851562 -3.851562 19.6875 -4.6875 C 20.519531 -5.519531 21.179688 -6.515625 21.671875 -7.671875 C 22.160156 -8.835938 22.40625 -10.050781 22.40625 -11.3125 C 22.40625 -12.582031 22.160156 -13.796875 21.671875 -14.953125 C 21.179688 -16.109375 20.519531 -17.101562 19.6875 -17.9375 C 18.851562 -18.769531 17.859375 -19.429688 16.703125 -19.921875 C 15.546875 -20.410156 14.332031 -20.65625 13.0625 -20.65625 C 11.789062 -20.65625 10.578125 -20.410156 9.421875 -19.921875 C 8.265625 -19.429688 7.269531 -18.769531 6.4375 -17.9375 C 5.601562 -17.101562 4.941406 -16.109375 4.453125 -14.953125 Z M 4.109375 -6.125 C 3.191406 -7.71875 2.734375 -9.445312 2.734375 -11.3125 C 2.734375 -13.175781 3.191406 -14.898438 4.109375 -16.484375 C 5.035156 -18.078125 6.289062 -19.332031 7.875 -20.25 C 9.46875 -21.175781 11.195312 -21.640625 13.0625 -21.640625 C 14.925781 -21.640625 16.648438 -21.175781 18.234375 -20.25 C 19.828125 -19.332031 21.082031 -18.078125 22 -16.484375 C 22.925781 -14.898438 23.390625 -13.175781 23.390625 -11.3125 C 23.390625 -9.445312 22.925781 -7.71875 22 -6.125 C 21.082031 -4.539062 19.828125 -3.285156 18.234375 -2.359375 C 16.648438 -1.441406 14.925781 -0.984375 13.0625 -0.984375 C 11.195312 -0.984375 9.46875 -1.441406 7.875 -2.359375 C 6.289062 -3.285156 5.035156 -4.539062 4.109375 -6.125 Z M 2.640625 -15.703125 C 2.046875 -14.304688 1.75 -12.84375 1.75 -11.3125 C 1.75 -9.78125 2.046875 -8.316406 2.640625 -6.921875 C 3.234375 -5.523438 4.035156 -4.320312 5.046875 -3.3125 C 6.066406 -2.300781 7.273438 -1.492188 8.671875 -0.890625 C 10.066406 -0.296875 11.53125 0 13.0625 0 C 14.59375 0 16.054688 -0.296875 17.453125 -0.890625 C 18.847656 -1.492188 20.050781 -2.300781 21.0625 -3.3125 C 22.082031 -4.320312 22.890625 -5.523438 23.484375 -6.921875 C 24.078125 -8.316406 24.375 -9.78125 24.375 -11.3125 C 24.375 -12.84375 24.078125 -14.304688 23.484375 -15.703125 C 22.890625 -17.097656 22.082031 -18.300781 21.0625 -19.3125 C 20.050781 -20.332031 18.847656 -21.140625 17.453125 -21.734375 C 16.054688 -22.328125 14.59375 -22.625 13.0625 -22.625 C 11.53125 -22.625 10.066406 -22.328125 8.671875 -21.734375 C 7.273438 -21.140625 6.066406 -20.332031 5.046875 -19.3125 C 4.035156 -18.300781 3.234375 -17.097656 2.640625 -15.703125 Z M 1.734375 -6.53125 C 1.085938 -8.050781 0.765625 -9.644531 0.765625 -11.3125 C 0.765625 -12.976562 1.085938 -14.566406 1.734375 -16.078125 C 2.390625 -17.597656 3.265625 -18.90625 4.359375 -20 C 5.460938 -21.101562 6.769531 -21.976562 8.28125 -22.625 C 9.800781 -23.28125 11.394531 -23.609375 13.0625 -23.609375 C 14.726562 -23.609375 16.316406 -23.28125 17.828125 -22.625 C 19.347656 -21.976562 20.65625 -21.101562 21.75 -20 C 22.851562 -18.90625 23.726562 -17.597656 24.375 -16.078125 C 25.03125 -14.566406 25.359375 -12.976562 25.359375 -11.3125 C 25.359375 -9.644531 25.03125 -8.050781 24.375 -6.53125 C 23.726562 -5.019531 22.851562 -3.710938 21.75 -2.609375 C 20.65625 -1.515625 19.347656 -0.644531 17.828125 0 C 16.316406 0.65625 14.726562 0.984375 13.0625 0.984375 C 11.394531 0.984375 9.800781 0.65625 8.28125 0 C 6.769531 -0.644531 5.460938 -1.515625 4.359375 -2.609375 C 3.265625 -3.710938 2.390625 -5.019531 1.734375 -6.53125 Z M 1.734375 -6.53125 "/></g></g></g><g fill="rgb(21.958923%, 85.099792%, 66.268921%)" fill-opacity="1"><g transform="translate(68.491526, 32.994396)"><g><path d="M 0.5 -22.625 L 1.578125 -22.625 L 9.984375 -1.328125 L 18.40625 -22.625 L 19.453125 -22.625 L 10.515625 0 L 9.453125 0 Z M 10.671875 -4.921875 L 10.109375 -3.65625 L 2.625 -22.625 L 3.671875 -22.625 Z M 11.71875 -7.609375 L 11.203125 -6.265625 L 4.734375 -22.625 L 5.8125 -22.625 Z M 12.765625 -10.34375 L 12.25 -8.96875 L 6.859375 -22.625 L 7.90625 -22.625 Z M 24.75 -22.625 L 25.8125 -22.625 L 16.859375 0 L 15.8125 0 Z M 22.640625 -22.625 L 23.6875 -22.625 L 14.75 0 L 13.6875 0 Z M 20.515625 -22.625 L 21.578125 -22.625 L 12.625 0 L 11.578125 0 Z M 20.515625 -22.625 "/></g></g></g><g fill="rgb(21.958923%, 85.099792%, 66.268921%)" fill-opacity="1"><g transform="translate(94.819507, 32.994396)"><g><path d="M 6.1875 0 L 5.203125 0 L 5.203125 -22.625 L 6.1875 -22.625 Z M 4.21875 0 L 3.234375 0 L 3.234375 -22.625 L 4.21875 -22.625 Z M 2.25 0 L 1.265625 0 L 1.265625 -22.625 L 2.25 -22.625 Z M 8.15625 -4.921875 L 18.625 -4.921875 L 18.625 -3.9375 L 8.15625 -3.9375 L 8.15625 -2.953125 L 18.625 -2.953125 L 18.625 -1.96875 L 8.15625 -1.96875 L 8.15625 -0.984375 L 18.625 -0.984375 L 18.625 0 L 7.171875 0 L 7.171875 -22.625 L 18.625 -22.625 L 18.625 -21.640625 L 8.15625 -21.640625 L 8.15625 -20.65625 L 18.625 -20.65625 L 18.625 -19.671875 L 8.15625 -19.671875 L 8.15625 -18.6875 L 18.625 -18.6875 L 18.625 -17.703125 L 8.15625 -17.703125 L 8.15625 -13.78125 L 13.53125 -13.78125 L 13.53125 -12.796875 L 8.15625 -12.796875 L 8.15625 -11.8125 L 13.53125 -11.8125 L 13.53125 -10.828125 L 8.15625 -10.828125 L 8.15625 -9.84375 L 13.53125 -9.84375 L 13.53125 -8.859375 L 8.15625 -8.859375 Z M 8.15625 -4.921875 "/></g></g></g><g fill="rgb(21.958923%, 85.099792%, 66.268921%)" fill-opacity="1"><g transform="translate(114.589405, 32.994396)"><g><path d="M 1.265625 -22.625 L 2.25 -22.625 L 2.25 0 L 1.265625 0 Z M 7.171875 -22.625 L 8.15625 -22.625 L 8.15625 -4.921875 L 16.03125 -4.921875 L 16.03125 -3.9375 L 8.15625 -3.9375 L 8.15625 -2.953125 L 16.03125 -2.953125 L 16.03125 -1.96875 L 8.15625 -1.96875 L 8.15625 -0.984375 L 16.03125 -0.984375 L 16.03125 0 L 7.171875 0 Z M 5.203125 -22.625 L 6.1875 -22.625 L 6.1875 0 L 5.203125 0 Z M 3.234375 -22.625 L 4.21875 -22.625 L 4.21875 0 L 3.234375 0 Z M 3.234375 -22.625 "/></g></g></g><g fill="rgb(21.958923%, 85.099792%, 66.268921%)" fill-opacity="1"><g transform="translate(131.517466, 32.994396)"><g><path d="M 11.046875 -6.640625 L 11.4375 -7.625 L 14.796875 -7.625 L 15.1875 -6.640625 Z M 10.28125 -4.671875 L 10.65625 -5.65625 L 15.5625 -5.65625 L 15.984375 -4.671875 Z M 9.515625 -2.703125 L 9.890625 -3.6875 L 16.34375 -3.6875 L 16.75 -2.703125 Z M 1.515625 0 L 0.453125 0 L 9.40625 -22.625 L 10.46875 -22.625 L 19.40625 0 L 18.34375 0 L 9.9375 -21.296875 Z M 10.0625 -18.96875 L 10.609375 -17.703125 L 3.625 0 L 2.5625 0 Z M 11.15625 -16.375 L 11.671875 -15.015625 L 5.75 0 L 4.6875 0 Z M 12.1875 -13.671875 L 12.703125 -12.28125 L 7.859375 0 L 6.8125 0 Z M 25.75 0 L 24.6875 0 L 15.75 -22.625 L 16.8125 -22.625 Z M 14.6875 -22.625 L 23.640625 0 L 22.59375 0 L 13.640625 -22.625 Z M 12.578125 -22.625 L 21.515625 0 L 20.453125 0 L 11.515625 -22.625 Z M 12.578125 -22.625 "/></g></g></g><g fill="rgb(21.958923%, 85.099792%, 66.268921%)" fill-opacity="1"><g transform="translate(157.722478, 32.994396)"><g><path d="M 17.34375 -10.890625 L 16.359375 -12.515625 L 16.359375 -22.625 L 17.34375 -22.625 Z M 19.3125 -7.671875 L 18.328125 -9.3125 L 18.328125 -22.625 L 19.3125 -22.625 Z M 21.28125 -4.40625 L 20.296875 -6.0625 L 20.296875 -22.625 L 21.28125 -22.625 Z M 7.171875 -11.734375 L 8.15625 -10.109375 L 8.15625 0 L 7.171875 0 Z M 5.203125 -14.96875 L 6.1875 -13.3125 L 6.1875 0 L 5.203125 0 Z M 3.234375 -18.234375 L 4.21875 -16.5625 L 4.21875 0 L 3.234375 0 Z M 3.578125 -22.625 L 4.734375 -22.625 L 18.640625 0 L 17.484375 0 Z M 5.90625 -22.625 L 7.0625 -22.625 L 20.96875 0 L 19.78125 0 Z M 8.21875 -22.625 L 9.359375 -22.625 L 22.265625 -1.59375 L 22.265625 -22.625 L 23.25 -22.625 L 23.25 0 C 23.25 0 22.859375 0 22.078125 0 Z M 2.25 -21.03125 L 2.25 0 L 1.265625 0 L 1.265625 -22.625 C 1.265625 -22.625 1.660156 -22.625 2.453125 -22.625 L 16.3125 0 L 15.1875 0 Z M 2.25 -21.03125 "/></g></g></g><g fill="rgb(21.958923%, 85.099792%, 66.268921%)" fill-opacity="1"><g transform="translate(182.287969, 32.994396)"><g><path d="M 7.171875 -5.90625 L 7.171875 -16.71875 C 7.171875 -16.71875 9.410156 -16.71875 13.890625 -16.71875 C 14.972656 -16.71875 15.898438 -16.1875 16.671875 -15.125 C 17.453125 -14.070312 17.84375 -12.800781 17.84375 -11.3125 C 17.84375 -9.820312 17.453125 -8.546875 16.671875 -7.484375 C 15.898438 -6.429688 14.972656 -5.90625 13.890625 -5.90625 Z M 8.15625 -6.890625 L 13.890625 -6.890625 C 14.691406 -6.890625 15.378906 -7.320312 15.953125 -8.1875 C 16.535156 -9.050781 16.828125 -10.09375 16.828125 -11.3125 C 16.828125 -12.539062 16.535156 -13.582031 15.953125 -14.4375 C 15.378906 -15.300781 14.691406 -15.734375 13.890625 -15.734375 L 8.15625 -15.734375 Z M 6.1875 -4.921875 L 13.890625 -4.921875 C 15.242188 -4.921875 16.410156 -5.546875 17.390625 -6.796875 C 18.367188 -8.046875 18.859375 -9.550781 18.859375 -11.3125 C 18.859375 -12.46875 18.628906 -13.535156 18.171875 -14.515625 C 17.722656 -15.503906 17.117188 -16.28125 16.359375 -16.84375 C 15.597656 -17.414062 14.773438 -17.703125 13.890625 -17.703125 L 6.1875 -17.703125 Z M 5.203125 -3.9375 L 5.203125 -18.6875 L 13.890625 -18.6875 C 14.953125 -18.6875 15.941406 -18.359375 16.859375 -17.703125 C 17.773438 -17.046875 18.503906 -16.148438 19.046875 -15.015625 C 19.597656 -13.890625 19.875 -12.65625 19.875 -11.3125 C 19.875 -9.976562 19.597656 -8.742188 19.046875 -7.609375 C 18.503906 -6.472656 17.773438 -5.578125 16.859375 -4.921875 C 15.941406 -4.265625 14.953125 -3.9375 13.890625 -3.9375 Z M 4.21875 -2.953125 L 13.890625 -2.953125 C 15.128906 -2.953125 16.285156 -3.320312 17.359375 -4.0625 C 18.429688 -4.8125 19.285156 -5.828125 19.921875 -7.109375 C 20.554688 -8.398438 20.875 -9.800781 20.875 -11.3125 C 20.875 -12.8125 20.554688 -14.207031 19.921875 -15.5 C 19.285156 -16.789062 18.425781 -17.804688 17.34375 -18.546875 C 16.269531 -19.296875 15.117188 -19.671875 13.890625 -19.671875 L 4.21875 -19.671875 Z M 3.234375 -1.96875 L 3.234375 -20.65625 L 13.890625 -20.65625 C 15.304688 -20.65625 16.628906 -20.238281 17.859375 -19.40625 C 19.085938 -18.570312 20.066406 -17.4375 20.796875 -16 C 21.523438 -14.5625 21.890625 -13 21.890625 -11.3125 C 21.890625 -9.625 21.523438 -8.0625 20.796875 -6.625 C 20.066406 -5.1875 19.085938 -4.050781 17.859375 -3.21875 C 16.628906 -2.382812 15.304688 -1.96875 13.890625 -1.96875 Z M 2.25 -0.984375 L 13.890625 -0.984375 C 15.078125 -0.984375 16.222656 -1.253906 17.328125 -1.796875 C 18.441406 -2.347656 19.40625 -3.082031 20.21875 -4 C 21.03125 -4.925781 21.679688 -6.023438 22.171875 -7.296875 C 22.660156 -8.578125 22.90625 -9.914062 22.90625 -11.3125 C 22.90625 -12.707031 22.660156 -14.039062 22.171875 -15.3125 C 21.679688 -16.59375 21.03125 -17.691406 20.21875 -18.609375 C 19.40625 -19.535156 18.441406 -20.269531 17.328125 -20.8125 C 16.222656 -21.363281 15.078125 -21.640625 13.890625 -21.640625 L 2.25 -21.640625 Z M 13.890625 0 L 1.265625 0 L 1.265625 -22.625 L 13.890625 -22.625 C 15.660156 -22.625 17.316406 -22.117188 18.859375 -21.109375 C 20.398438 -20.097656 21.625 -18.722656 22.53125 -16.984375 C 23.445312 -15.242188 23.90625 -13.351562 23.90625 -11.3125 C 23.90625 -9.78125 23.632812 -8.316406 23.09375 -6.921875 C 22.550781 -5.523438 21.828125 -4.320312 20.921875 -3.3125 C 20.023438 -2.300781 18.957031 -1.492188 17.71875 -0.890625 C 16.488281 -0.296875 15.210938 0 13.890625 0 Z M 13.890625 0 "/></g></g></g></svg>